<svg width="31" height="24" viewBox="0 0 31 24" fill="none" xmlns="http://www.w3.org/2000/svg">
<rect x="0.875732" y="10.0694" width="13.3374" height="13.3374" fill="#E63B3B"/>
<rect x="14.2131" y="17.0049" width="6.93544" height="6.40195" fill="#E63B3B"/>
<path d="M19.8148 11.9366H25.6833L20.6151 17.2716H14.2131L19.8148 11.9366Z" fill="#E63B3B"/>
<path d="M24.2132 7.40195H30.2181L25.032 12.7369H18.4812L24.2132 7.40195Z" fill="#E63B3B"/>
<path d="M21.1484 17.2716L25.9499 12.4702V18.8721L21.1484 23.6736V17.2716Z" fill="#E63B3B"/>
<path d="M25.95 12.2034L30.7514 7.40195V13.8039L25.95 18.6054V12.2034Z" fill="#E63B3B"/>
<path d="M14.48 10.3362L23.2827 1V7.66869L14.48 17.0049V10.3362Z" fill="#E63B3B"/>
<path d="M9.67836 1H23.2825L14.2131 10.0694H1.40918L9.67836 1Z" fill="#E63B3B"/>
<line x1="0.522179" y1="10.1985" x2="9.95313" y2="0.767524" stroke="#1E1E1E"/>
<line x1="13.9838" y1="10.0774" x2="23.4148" y2="0.646461" stroke="#1E1E1E"/>
<line x1="13.9838" y1="17.0128" x2="23.4148" y2="7.58189" stroke="#1E1E1E"/>
<line x1="20.9192" y1="17.0128" x2="30.3501" y2="7.58189" stroke="#1E1E1E"/>
<line x1="20.9192" y1="23.4148" x2="30.3501" y2="13.9838" stroke="#1E1E1E"/>
<line x1="1" y1="10.1029" x2="14.3374" y2="10.1029" stroke="#1E1E1E"/>
<line x1="1" y1="10.1029" x2="14.3374" y2="10.1029" stroke="#1E1E1E"/>
<line x1="1" y1="23.4403" x2="14.3374" y2="23.4403" stroke="#1E1E1E"/>
<line x1="14.3374" y1="23.4403" x2="21.0061" y2="23.4403" stroke="#1E1E1E"/>
<line x1="20.7727" y1="23.6736" x2="20.7727" y2="17.0049" stroke="#1E1E1E"/>
<line x1="25.5742" y1="18.8721" x2="25.5742" y2="12.2034" stroke="#1E1E1E"/>
<line x1="30.3757" y1="14.0706" x2="30.3757" y2="7.40196" stroke="#1E1E1E"/>
<line x1="14.3374" y1="17.0384" x2="21.0061" y2="17.0384" stroke="#1E1E1E"/>
<line x1="19.1389" y1="11.7034" x2="25.8076" y2="11.7034" stroke="#1E1E1E"/>
<line x1="23.4067" y1="7.43546" x2="30.0754" y2="7.43546" stroke="#1E1E1E"/>
<line x1="0.5" y1="23.9403" x2="0.5" y2="10.6029" stroke="#1E1E1E"/>
<line x1="13.8374" y1="23.9403" x2="13.8374" y2="10.6029" stroke="#1E1E1E"/>
<line x1="22.9067" y1="7.93546" x2="22.9067" y2="1.26676" stroke="#1E1E1E"/>
<line x1="10.0693" y1="0.5" x2="23.4067" y2="0.5" stroke="#1E1E1E"/>
</svg>
