<svg width="26" height="21" viewBox="0 0 26 21" fill="none" xmlns="http://www.w3.org/2000/svg">
<line x1="0.542931" y1="8.60647" x2="8.40206" y2="0.747339" stroke="#1E1E1E"/>
<line x1="11.7609" y1="8.50558" x2="19.6201" y2="0.646448" stroke="#1E1E1E"/>
<line x1="11.7609" y1="14.2851" x2="19.6201" y2="6.42599" stroke="#1E1E1E"/>
<line x1="17.5405" y1="14.2851" x2="25.3996" y2="6.42599" stroke="#1E1E1E"/>
<line x1="17.5405" y1="19.6201" x2="25.3996" y2="11.761" stroke="#1E1E1E"/>
<line x1="1" y1="8.50244" x2="12.1145" y2="8.50244" stroke="#1E1E1E"/>
<line x1="1" y1="8.50244" x2="12.1145" y2="8.50244" stroke="#1E1E1E"/>
<line x1="1" y1="19.6169" x2="12.1145" y2="19.6169" stroke="#1E1E1E"/>
<line x1="12.1145" y1="19.6169" x2="17.6717" y2="19.6169" stroke="#1E1E1E"/>
<line x1="17.394" y1="19.45" x2="17.394" y2="13.8928" stroke="#1E1E1E"/>
<line x1="21.3953" y1="15.8934" x2="21.3953" y2="10.3362" stroke="#1E1E1E"/>
<line x1="25.3965" y1="11.8922" x2="25.3965" y2="6.33497" stroke="#1E1E1E"/>
<line x1="12.1145" y1="14.282" x2="17.6717" y2="14.282" stroke="#1E1E1E"/>
<line x1="16.1157" y1="9.83618" x2="21.673" y2="9.83618" stroke="#1E1E1E"/>
<line x1="19.6724" y1="6.27954" x2="25.2296" y2="6.27954" stroke="#1E1E1E"/>
<line x1="0.5" y1="20.1169" x2="0.5" y2="9.00243" stroke="#1E1E1E"/>
<line x1="11.6145" y1="20.1169" x2="11.6145" y2="9.00243" stroke="#1E1E1E"/>
<line x1="19.1724" y1="6.77954" x2="19.1724" y2="1.2223" stroke="#1E1E1E"/>
<line x1="8.55786" y1="0.5" x2="19.6723" y2="0.5" stroke="#1E1E1E"/>
</svg>
