<svg width="31" height="24" viewBox="0 0 31 24" fill="none" xmlns="http://www.w3.org/2000/svg">
<rect x="0.875732" y="10.0694" width="13.3374" height="13.3374" fill="#1E1E1E"/>
<rect x="14.2131" y="17.0049" width="6.93544" height="6.40195" fill="#1E1E1E"/>
<path d="M19.8148 11.9367H25.6833L20.6151 17.2716H14.2131L19.8148 11.9367Z" fill="#1E1E1E"/>
<path d="M24.2131 7.40195H30.218L25.95 11.6699L18.4811 12.2034L24.2131 7.40195Z" fill="#1E1E1E"/>
<path d="M21.1486 17.2716L25.95 12.4702V18.8721L21.1486 23.6736V17.2716Z" fill="#1E1E1E"/>
<path d="M25.9501 12.2034L30.7515 7.40195V13.8039L25.9501 18.6054V12.2034Z" fill="#1E1E1E"/>
<path d="M14.4799 10.3362L23.2825 1V7.66869L14.4799 17.0049V10.3362Z" fill="#1E1E1E"/>
<path d="M9.67836 1H23.2825L14.2131 10.0694H1.40918L9.67836 1Z" fill="#1E1E1E"/>
<line x1="0.522179" y1="10.1985" x2="9.95313" y2="0.767509" stroke="#1E1E1E"/>
<line x1="13.9838" y1="10.0774" x2="23.4148" y2="0.646445" stroke="#1E1E1E"/>
<line x1="13.9838" y1="17.0128" x2="23.4148" y2="7.58189" stroke="#1E1E1E"/>
<line x1="20.9193" y1="17.0128" x2="30.3502" y2="7.58189" stroke="#1E1E1E"/>
<line x1="20.9193" y1="23.4148" x2="30.3502" y2="13.9838" stroke="#1E1E1E"/>
<line x1="1" y1="10.1029" x2="14.3374" y2="10.1029" stroke="#1E1E1E"/>
<line x1="1" y1="10.1029" x2="14.3374" y2="10.1029" stroke="#1E1E1E"/>
<line x1="1" y1="23.4403" x2="14.3374" y2="23.4403" stroke="#1E1E1E"/>
<line x1="14.3374" y1="23.4403" x2="21.0061" y2="23.4403" stroke="#1E1E1E"/>
<line x1="20.7728" y1="23.6736" x2="20.7728" y2="17.0049" stroke="#1E1E1E"/>
<line x1="25.5742" y1="18.8721" x2="25.5742" y2="12.2034" stroke="#1E1E1E"/>
<line x1="30.3757" y1="14.0706" x2="30.3757" y2="7.40196" stroke="#1E1E1E"/>
<line x1="14.3374" y1="17.0384" x2="21.0061" y2="17.0384" stroke="#1E1E1E"/>
<line x1="19.1388" y1="11.7034" x2="25.8075" y2="11.7034" stroke="#1E1E1E"/>
<line x1="23.4067" y1="7.43544" x2="30.0754" y2="7.43544" stroke="#1E1E1E"/>
<line x1="0.5" y1="23.9403" x2="0.5" y2="10.6029" stroke="#1E1E1E"/>
<line x1="13.8374" y1="23.9403" x2="13.8374" y2="10.6029" stroke="#1E1E1E"/>
<line x1="22.9067" y1="7.93544" x2="22.9067" y2="1.26675" stroke="#1E1E1E"/>
<line x1="10.0695" y1="0.5" x2="23.4068" y2="0.5" stroke="#1E1E1E"/>
<line x1="0.522179" y1="10.1985" x2="9.95313" y2="0.767509" stroke="white"/>
<line x1="13.9838" y1="10.0774" x2="23.4148" y2="0.646445" stroke="white"/>
<line x1="13.9838" y1="17.0128" x2="23.4148" y2="7.58189" stroke="white"/>
<line x1="20.9193" y1="17.0128" x2="30.3502" y2="7.58189" stroke="white"/>
<line x1="20.9193" y1="23.4148" x2="30.3502" y2="13.9838" stroke="white"/>
<line x1="1" y1="10.1029" x2="14.3374" y2="10.1029" stroke="white"/>
<line x1="1" y1="10.1029" x2="14.3374" y2="10.1029" stroke="white"/>
<line x1="1" y1="23.4403" x2="14.3374" y2="23.4403" stroke="white"/>
<line x1="14.3374" y1="23.4403" x2="21.0061" y2="23.4403" stroke="white"/>
<line x1="20.7728" y1="23.6736" x2="20.7728" y2="17.0049" stroke="white"/>
<line x1="25.5742" y1="18.8721" x2="25.5742" y2="12.2034" stroke="white"/>
<line x1="30.3757" y1="14.0706" x2="30.3757" y2="7.40196" stroke="white"/>
<line x1="14.3374" y1="17.0384" x2="21.0061" y2="17.0384" stroke="white"/>
<line x1="19.1388" y1="11.7034" x2="25.8075" y2="11.7034" stroke="white"/>
<line x1="23.4067" y1="7.43544" x2="30.0754" y2="7.43544" stroke="white"/>
<line x1="0.5" y1="23.9403" x2="0.5" y2="10.6029" stroke="white"/>
<line x1="13.8374" y1="23.9403" x2="13.8374" y2="10.6029" stroke="white"/>
<line x1="22.9067" y1="7.93544" x2="22.9067" y2="1.26675" stroke="white"/>
<line x1="10.0695" y1="0.5" x2="23.4068" y2="0.5" stroke="white"/>
</svg>
