<svg width="60" height="60" viewBox="0 0 60 60" fill="none" xmlns="http://www.w3.org/2000/svg">
<path d="M31.3838 41.2652C31.0285 41.6537 30.5265 41.875 30 41.875C29.4735 41.875 28.9715 41.6537 28.6163 41.2652L18.6162 30.3277C17.9175 29.5635 17.9706 28.3775 18.7348 27.6787C19.4991 26.98 20.6851 27.033 21.3838 27.7973L28.125 35.1705V7.5C28.125 6.46448 28.9645 5.625 30 5.625C31.0355 5.625 31.875 6.46448 31.875 7.5V35.1705L38.6163 27.7973C39.315 27.033 40.501 26.98 41.2653 27.6787C42.0295 28.3775 42.0825 29.5635 41.3838 30.3277L31.3838 41.2652Z" fill="#1E1E1E"/>
<path d="M9.375 37.5C9.375 36.4645 8.53555 35.625 7.5 35.625C6.46448 35.625 5.625 36.4645 5.625 37.5V37.6373C5.62495 41.0563 5.6249 43.812 5.9163 45.9795C6.21885 48.2297 6.86608 50.1242 8.37088 51.629C9.87568 53.134 11.7704 53.7812 14.0206 54.0837C16.1881 54.375 18.9439 54.375 22.3628 54.375H37.6373C41.0563 54.375 43.812 54.375 45.9795 54.0837C48.2297 53.7812 50.1242 53.134 51.6292 51.629C53.134 50.1242 53.7812 48.2297 54.0837 45.9795C54.375 43.812 54.375 41.0563 54.375 37.6373V37.5C54.375 36.4645 53.5355 35.625 52.5 35.625C51.4645 35.625 50.625 36.4645 50.625 37.5C50.625 41.0885 50.621 43.5913 50.3673 45.4798C50.1205 47.3143 49.6695 48.2855 48.9775 48.9775C48.2855 49.6695 47.3143 50.1205 45.4798 50.3673C43.5913 50.621 41.0885 50.625 37.5 50.625H22.5C18.9115 50.625 16.4087 50.621 14.5203 50.3673C12.6859 50.1205 11.7144 49.6695 11.0225 48.9775C10.3306 48.2855 9.8795 47.3143 9.63288 45.4798C9.37898 43.5913 9.375 41.0885 9.375 37.5Z" fill="#1E1E1E"/>
</svg>
