<svg width="60" height="60" viewBox="0 0 60 60" fill="none" xmlns="http://www.w3.org/2000/svg">
<path fill-rule="evenodd" clip-rule="evenodd" d="M9.375 11.25L11.25 9.375H26.25L28.125 11.25V26.25L26.25 28.125H11.25L9.375 26.25V11.25ZM13.125 13.125V24.375H24.375V13.125H13.125ZM31.875 11.25L33.75 9.375H48.75L50.625 11.25V26.25L48.75 28.125H33.75L31.875 26.25V11.25ZM35.625 13.125V24.375H46.875V13.125H35.625ZM9.375 33.75L11.25 31.875H26.25L28.125 33.75V48.75L26.25 50.625H11.25L9.375 48.75V33.75ZM13.125 35.625V46.875H24.375V35.625H13.125ZM31.875 33.75L33.75 31.875H48.75L50.625 33.75V48.75L48.75 50.625H33.75L31.875 48.75V33.75ZM35.625 35.625V46.875H46.875V35.625H35.625Z" fill="#1E1E1E"/>
</svg>
