<?xml version="1.0" encoding="UTF-8"?>
<svg id="Camada_1" data-name="Camada 1" xmlns="http://www.w3.org/2000/svg" viewBox="0 0 1080 1080">
  <defs>
    <style>
      .cls-1 {
        fill: #633bba;
      }
    </style>
  </defs>
  <g>
    <path class="cls-1" d="M318.84,483.38c21.25,0,38.54-17.29,38.54-38.53s-17.29-38.53-38.54-38.53-38.53,17.29-38.53,38.53,17.29,38.53,38.53,38.53ZM318.84,425.27c10.79,0,19.57,8.78,19.57,19.57s-8.78,19.57-19.57,19.57-19.57-8.78-19.57-19.57,8.78-19.57,19.57-19.57Z"/>
    <path class="cls-1" d="M217.22,508.35c0-17.38-14.14-31.51-31.51-31.51s-31.51,14.14-31.51,31.51,14.14,31.51,31.51,31.51,31.51-14.14,31.51-31.51ZM185.71,520.9c-6.92,0-12.54-5.63-12.54-12.54s5.63-12.54,12.54-12.54,12.54,5.63,12.54,12.54-5.63,12.54-12.54,12.54Z"/>
    <path class="cls-1" d="M339.35,614.61c0,16.9-10.59,31.36-25.48,37.12-.98-4.8-4.92-14.28-20.68-13.38,0,0,5.05-13.73-4.85-31.3-9.9-17.57-30.9-18.58-30.9-18.58,0,0-15.95-2.42-32.51,13.93l-29.28,35.95s-9.49-.61-15.95.61c-6.46,1.21-13.13,4.43-13.73,15.44h-3.34c-21.95,0-39.8-17.85-39.8-39.8v-136.92c0-21.95,17.85-39.8,39.8-39.8h107.72c1.33-6.9,4.01-13.32,7.77-18.97h-115.49c-32.4,0-58.77,26.36-58.77,58.77v136.92c0,32.4,26.36,58.77,58.77,58.77h136.92c32.4,0,58.77-26.36,58.77-58.77v-41.41h-18.97v41.41Z"/>
    <path class="cls-1" d="M270.97,450.96l-.32-.59-58.97,25.65.16.45c9.79,7.06,16.18,18.56,16.18,31.52,0,3.17-.39,6.25-1.11,9.2l59.32-37.4c-8.65-6.86-14.44-17.17-15.27-28.83Z"/>
    <path class="cls-1" d="M219.83,594.45c12.73-11.89,30.21-17.42,47.43-14.76,2.05.32,3.24.61,3.24.61l-48.47-51.65s-3.33,7.12-14.3,14.54c-10.97,7.42-26.75,5.45-26.75,5.45l31.35,53.77c2.49-3.03,5.05-5.68,7.49-7.96Z"/>
    <path class="cls-1" d="M357.71,503.15l.54-.17-6.76-21.68c-6.09,5.77-14.05,9.57-22.86,10.39l5.62,18.41c-7.08,5.5-11.96,13.77-12.85,23.26-.85,9.03,1.95,17.71,7.39,24.38,4.21,5.16,12.29,4.41,15.43-1.45l.23-.42c1.77-3.31,1.28-7.3-1.06-10.24-2.59-3.24-3.75-7.55-2.9-11.92,1.18-6.09,6.24-10.83,12.39-11.61,8.88-1.13,16.47,5.79,16.47,14.45,0,3.15-1.03,6.17-2.85,8.64-2.27,3.09-2.59,7.19-.67,10.5,3.39,5.85,11.68,6.42,15.74,1.01,4.3-5.73,6.74-12.79,6.74-20.15,0-17.51-13.49-31.92-30.62-33.4Z"/>
  </g>
  <g>
    <g>
      <path d="M428.41,644.6h19.07c2.78,0,5.02.12,6.73.37,1.7.25,2.99.67,3.87,1.28.88.61,1.47,1.44,1.78,2.49.31,1.05.46,2.38.46,3.99v.74c0,1.48-.18,2.76-.53,3.83-.35,1.07-1.03,1.94-2.03,2.6-1,.66-2.49,1.13-4.45,1.4l6.2,11.8h-3.56l-6.07-11.54c-.25.01-.5.02-.77.02h-17.14v11.52h-3.56v-28.5ZM431.97,658.5h15.75c2.12,0,3.78-.07,5-.21,1.22-.14,2.12-.39,2.69-.75.58-.36.94-.87,1.1-1.52.16-.66.24-1.5.24-2.54v-.74c0-1.17-.11-2.1-.33-2.78-.22-.68-.67-1.18-1.34-1.5-.67-.32-1.66-.53-2.99-.62-1.32-.09-3.09-.14-5.31-.14h-14.83v10.82Z"/>
      <path d="M478.1,673.69c-2.78,0-5.07-.19-6.87-.57-1.79-.38-3.19-1.07-4.2-2.09-1.01-1.01-1.71-2.47-2.12-4.38-.4-1.9-.6-4.38-.6-7.44v-.74c0-2.52.12-4.64.37-6.36.25-1.71.67-3.11,1.28-4.18.61-1.08,1.43-1.9,2.48-2.47,1.04-.57,2.36-.96,3.94-1.16,1.58-.21,3.49-.31,5.71-.31h7.48c2.23,0,4.13.1,5.71.31,1.58.2,2.9.59,3.94,1.16,1.04.57,1.87,1.39,2.48,2.47.61,1.08,1.03,2.47,1.28,4.18.25,1.71.37,3.83.37,6.36v.74c0,3.06-.2,5.54-.6,7.44-.4,1.91-1.11,3.37-2.12,4.38-1.01,1.01-2.41,1.71-4.2,2.09-1.79.38-4.08.57-6.87.57h-7.48ZM478.1,670.61h7.48c1.77,0,3.26-.06,4.47-.19,1.21-.12,2.2-.39,2.96-.8s1.34-1.03,1.74-1.86c.4-.83.68-1.94.83-3.32.15-1.38.22-3.13.22-5.23v-.74c0-2.18-.07-3.97-.22-5.38s-.42-2.52-.83-3.34c-.4-.82-.98-1.41-1.74-1.79-.76-.38-1.75-.62-2.96-.72-1.21-.11-2.7-.16-4.47-.16h-7.48c-1.77,0-3.26.05-4.47.16-1.21.1-2.2.35-2.96.72-.76.38-1.34.97-1.74,1.79-.4.82-.68,1.93-.83,3.34s-.22,3.2-.22,5.38v.74c0,2.1.07,3.85.22,5.23.15,1.39.42,2.49.83,3.32.4.83.98,1.45,1.74,1.86s1.75.67,2.96.8c1.21.12,2.7.19,4.47.19Z"/>
      <path d="M503.74,673.1v-28.5h22.71c2.15,0,3.92.2,5.3.6,1.38.4,2.4,1.11,3.06,2.13.66,1.02.99,2.47.99,4.33,0,1.68-.39,3.07-1.17,4.17-.78,1.1-1.97,1.71-3.58,1.82,2.1.21,3.62.96,4.55,2.25.93,1.29,1.39,2.92,1.39,4.87,0,1.7-.19,3.09-.58,4.17-.39,1.09-1.04,1.93-1.96,2.53-.92.6-2.16,1.02-3.72,1.25-1.56.24-3.52.35-5.85.35h-21.13ZM507.3,656.47h16.61c1.92,0,3.49-.07,4.71-.2,1.22-.14,2.13-.54,2.73-1.21s.89-1.8.89-3.4c0-1.25-.18-2.16-.53-2.75-.35-.58-.95-.95-1.79-1.11-.84-.16-2-.24-3.47-.24h-19.15v8.91ZM507.3,670.13h17.57c1.69,0,3.1-.04,4.2-.13,1.11-.09,1.98-.3,2.62-.63.64-.33,1.09-.86,1.35-1.59.26-.72.39-1.72.39-3s-.24-2.33-.73-3.06c-.49-.73-1.17-1.25-2.04-1.58-.87-.32-1.88-.52-3.03-.59s-2.39-.11-3.71-.11h-16.61v10.69Z"/>
      <path d="M553.97,673.69c-2.78,0-5.07-.19-6.87-.57-1.79-.38-3.19-1.07-4.2-2.09-1.01-1.01-1.71-2.47-2.12-4.38-.4-1.9-.6-4.38-.6-7.44v-.74c0-2.52.12-4.64.37-6.36.25-1.71.67-3.11,1.28-4.18.61-1.08,1.43-1.9,2.48-2.47,1.04-.57,2.36-.96,3.94-1.16,1.58-.21,3.49-.31,5.71-.31h7.48c2.23,0,4.13.1,5.71.31,1.58.2,2.9.59,3.94,1.16,1.04.57,1.87,1.39,2.48,2.47.61,1.08,1.03,2.47,1.28,4.18.25,1.71.37,3.83.37,6.36v.74c0,3.06-.2,5.54-.6,7.44-.4,1.91-1.11,3.37-2.12,4.38-1.01,1.01-2.41,1.71-4.2,2.09-1.79.38-4.08.57-6.87.57h-7.48ZM553.97,670.61h7.48c1.77,0,3.26-.06,4.47-.19,1.21-.12,2.2-.39,2.96-.8s1.34-1.03,1.74-1.86c.4-.83.68-1.94.83-3.32.15-1.38.22-3.13.22-5.23v-.74c0-2.18-.07-3.97-.22-5.38s-.42-2.52-.83-3.34c-.4-.82-.98-1.41-1.74-1.79-.76-.38-1.75-.62-2.96-.72-1.21-.11-2.7-.16-4.47-.16h-7.48c-1.77,0-3.26.05-4.47.16-1.21.1-2.2.35-2.96.72-.76.38-1.34.97-1.74,1.79-.4.82-.68,1.93-.83,3.34s-.22,3.2-.22,5.38v.74c0,2.1.07,3.85.22,5.23.15,1.39.42,2.49.83,3.32.4.83.98,1.45,1.74,1.86s1.75.67,2.96.8c1.21.12,2.7.19,4.47.19Z"/>
      <path d="M592.04,673.1v-25.53h-14.25v-2.97h32.06v2.97h-14.25v25.53h-3.56Z"/>
      <path d="M613.61,673.1v-28.5h3.56v28.5h-3.56Z"/>
      <path d="M621.55,659.22v-.74c0-2.52.12-4.64.37-6.36.25-1.71.67-3.11,1.28-4.18.61-1.08,1.43-1.9,2.48-2.47,1.04-.57,2.36-.96,3.94-1.16,1.58-.21,3.49-.31,5.71-.31h7.48c2.55,0,4.7.12,6.45.36,1.75.24,3.16.72,4.23,1.43,1.07.71,1.85,1.76,2.33,3.13.48,1.38.72,3.21.72,5.48h-3.56c0-1.79-.16-3.19-.48-4.18-.32-1-.86-1.72-1.62-2.16s-1.8-.72-3.11-.83c-1.31-.11-2.96-.16-4.95-.16h-7.48c-1.77,0-3.26.05-4.47.16-1.21.1-2.2.35-2.96.72-.76.38-1.34.97-1.74,1.79-.4.82-.68,1.93-.83,3.34s-.22,3.2-.22,5.38v.74c0,2.1.07,3.85.22,5.23.15,1.39.42,2.49.83,3.32.4.83.98,1.45,1.74,1.86s1.75.67,2.96.8c1.21.12,2.7.19,4.47.19h7.48c1.99,0,3.64-.04,4.95-.13,1.31-.09,2.35-.34,3.11-.76.76-.42,1.3-1.12,1.62-2.11.32-.98.48-2.37.48-4.15h3.56c0,2.28-.24,4.09-.72,5.46-.48,1.36-1.26,2.38-2.33,3.07-1.07.69-2.48,1.14-4.23,1.36-1.75.22-3.9.33-6.45.33h-7.48c-2.78,0-5.07-.19-6.87-.57-1.79-.38-3.19-1.07-4.2-2.09-1.01-1.01-1.71-2.47-2.12-4.38-.4-1.9-.6-4.38-.6-7.44Z"/>
      <path d="M680.31,673.1l16.62-28.5h4.75l16.62,28.5h-4.16l-3.56-6.53h-22.56l-3.56,6.53h-4.16ZM689.81,663.6h19l-9.5-16.62-9.5,16.62Z"/>
      <path d="M751.84,664.86c0-1.1-.09-1.97-.26-2.6-.17-.63-.56-1.1-1.17-1.4-.61-.3-1.55-.5-2.82-.59-1.27-.09-3.02-.16-5.23-.2l-10.32-.15c-2.55-.04-4.6-.19-6.14-.46-1.55-.27-2.72-.7-3.51-1.29-.79-.59-1.32-1.38-1.59-2.37-.27-.99-.4-2.23-.4-3.71,0-1.62.18-2.96.55-4.01.36-1.05,1.03-1.87,1.98-2.47.96-.59,2.32-1.01,4.07-1.25,1.76-.24,4.03-.36,6.81-.36h7.94c2.52,0,4.63.08,6.31.24,1.68.16,3.02.53,4.01,1.11.99.58,1.7,1.48,2.12,2.71.43,1.22.64,2.91.64,5.05h-3.56c0-1.66-.16-2.91-.47-3.76-.31-.85-.83-1.43-1.56-1.74-.72-.31-1.7-.48-2.92-.5-1.22-.02-2.75-.04-4.56-.04h-7.76c-2.22,0-3.99.04-5.32.13-1.33.09-2.33.29-3.01.59-.68.31-1.13.8-1.36,1.48-.23.68-.34,1.61-.34,2.8,0,1,.08,1.81.24,2.41.16.61.52,1.07,1.09,1.38.56.31,1.43.53,2.61.65,1.17.12,2.78.19,4.81.21l11.06.15c2.6.04,4.67.19,6.22.45,1.55.27,2.72.7,3.49,1.29.77.59,1.29,1.39,1.54,2.4.25,1.01.38,2.28.38,3.81,0,1.67-.16,3.07-.47,4.2-.31,1.13-.92,2.04-1.83,2.72-.9.68-2.21,1.17-3.92,1.47s-3.95.45-6.74.45h-8.68c-2.54,0-4.66-.11-6.38-.33-1.72-.22-3.09-.67-4.11-1.35-1.02-.67-1.75-1.68-2.2-3.01s-.67-3.12-.67-5.34h3.56c0,1.74.14,3.09.43,4.04.28.95.78,1.64,1.49,2.05.71.42,1.71.66,2.99.74,1.28.08,2.91.12,4.89.12h8.5c2.21,0,3.96-.07,5.25-.21,1.29-.14,2.24-.42,2.86-.82.62-.4,1.02-.98,1.2-1.74.18-.75.27-1.75.27-2.99Z"/>
      <path d="M790.02,664.86c0-1.1-.09-1.97-.26-2.6-.17-.63-.56-1.1-1.17-1.4-.61-.3-1.55-.5-2.82-.59-1.27-.09-3.02-.16-5.23-.2l-10.32-.15c-2.55-.04-4.6-.19-6.14-.46-1.55-.27-2.72-.7-3.51-1.29-.79-.59-1.32-1.38-1.59-2.37-.27-.99-.4-2.23-.4-3.71,0-1.62.18-2.96.55-4.01.36-1.05,1.03-1.87,1.98-2.47.96-.59,2.32-1.01,4.07-1.25,1.76-.24,4.03-.36,6.81-.36h7.94c2.52,0,4.63.08,6.31.24,1.68.16,3.02.53,4.01,1.11.99.58,1.7,1.48,2.12,2.71.43,1.22.64,2.91.64,5.05h-3.56c0-1.66-.16-2.91-.47-3.76-.31-.85-.83-1.43-1.56-1.74-.72-.31-1.7-.48-2.92-.5-1.22-.02-2.75-.04-4.56-.04h-7.76c-2.21,0-3.99.04-5.32.13-1.33.09-2.33.29-3.01.59-.68.31-1.13.8-1.36,1.48-.23.68-.34,1.61-.34,2.8,0,1,.08,1.81.24,2.41.16.61.52,1.07,1.09,1.38.56.31,1.43.53,2.61.65,1.17.12,2.78.19,4.81.21l11.06.15c2.6.04,4.67.19,6.22.45,1.55.27,2.72.7,3.49,1.29.77.59,1.29,1.39,1.54,2.4.25,1.01.38,2.28.38,3.81,0,1.67-.16,3.07-.47,4.2-.31,1.13-.92,2.04-1.83,2.72-.9.68-2.21,1.17-3.92,1.47s-3.95.45-6.74.45h-8.68c-2.54,0-4.66-.11-6.38-.33-1.72-.22-3.09-.67-4.11-1.35-1.02-.67-1.75-1.68-2.2-3.01s-.67-3.12-.67-5.34h3.56c0,1.74.14,3.09.43,4.04.28.95.78,1.64,1.49,2.05.71.42,1.71.66,2.99.74,1.28.08,2.91.12,4.89.12h8.5c2.21,0,3.96-.07,5.25-.21,1.29-.14,2.24-.42,2.86-.82.62-.4,1.02-.98,1.2-1.74.18-.75.27-1.75.27-2.99Z"/>
      <path d="M797.87,673.1v-28.5h27.98v2.97h-24.42v9.5h23.4v2.97h-23.4v10.09h24.94v2.97h-28.5Z"/>
      <path d="M829.64,673.1v-28.5h5.31l17.24,23.25,16.98-23.25h5.31v28.5h-3.56v-25.27l-17.01,23.4h-3.23l-17.46-23.4v25.27h-3.56Z"/>
      <path d="M880.11,673.1v-28.5h22.71c2.15,0,3.92.2,5.3.6,1.38.4,2.4,1.11,3.06,2.13.66,1.02.99,2.47.99,4.33,0,1.68-.39,3.07-1.17,4.17-.78,1.1-1.97,1.71-3.58,1.82,2.1.21,3.62.96,4.55,2.25.93,1.29,1.39,2.92,1.39,4.87,0,1.7-.2,3.09-.58,4.17-.39,1.09-1.04,1.93-1.96,2.53-.92.6-2.16,1.02-3.72,1.25-1.57.24-3.52.35-5.85.35h-21.13ZM883.67,656.47h16.61c1.92,0,3.49-.07,4.71-.2,1.22-.14,2.13-.54,2.73-1.21s.89-1.8.89-3.4c0-1.25-.18-2.16-.53-2.75-.35-.58-.95-.95-1.79-1.11-.84-.16-2-.24-3.47-.24h-19.15v8.91ZM883.67,670.13h17.57c1.69,0,3.1-.04,4.2-.13,1.11-.09,1.98-.3,2.62-.63.64-.33,1.08-.86,1.34-1.59.26-.72.39-1.72.39-3s-.24-2.33-.73-3.06c-.49-.73-1.17-1.25-2.04-1.58-.87-.32-1.88-.52-3.03-.59s-2.39-.11-3.71-.11h-16.61v10.69Z"/>
      <path d="M917.74,673.1v-28.5h3.56v25.53h22.56v2.97h-26.12Z"/>
      <path d="M956.52,673.1v-11.88l-16.03-16.62h4.75l13.06,13.95,13.06-13.95h4.75l-16.03,16.62v11.88h-3.56Z"/>
    </g>
    <g>
      <path d="M428.47,617.29l16.62-28.5h4.75l16.62,28.5h-4.16l-3.56-6.53h-22.56l-3.56,6.53h-4.16ZM437.97,607.79h19l-9.5-16.62-9.5,16.62Z"/>
      <path d="M485.49,617.88c-2.78,0-5.07-.19-6.87-.57-1.79-.38-3.19-1.07-4.2-2.09-1.01-1.01-1.71-2.47-2.12-4.38-.4-1.9-.6-4.38-.6-7.44v-14.62h3.56v14.62c0,2.1.07,3.85.22,5.23.15,1.39.43,2.49.83,3.32.41.83.99,1.45,1.75,1.86s1.75.67,2.96.8c1.21.12,2.7.19,4.45.19h6.72c1.77,0,3.26-.06,4.46-.19,1.21-.12,2.19-.39,2.95-.8s1.35-1.03,1.75-1.86c.41-.83.69-1.94.83-3.32.15-1.38.22-3.13.22-5.23v-14.62h3.56v14.62c0,3.06-.2,5.54-.6,7.44-.4,1.91-1.11,3.37-2.12,4.38-1.01,1.01-2.41,1.71-4.2,2.09-1.79.38-4.08.57-6.87.57h-6.72Z"/>
      <path d="M526.03,617.29v-25.53h-14.25v-2.97h32.06v2.97h-14.25v25.53h-3.56Z"/>
      <path d="M563.27,617.88c-2.78,0-5.07-.19-6.87-.57-1.79-.38-3.19-1.07-4.2-2.09-1.01-1.01-1.71-2.47-2.12-4.38-.4-1.9-.6-4.38-.6-7.44v-.74c0-2.52.12-4.64.37-6.36.25-1.71.67-3.11,1.28-4.18.61-1.08,1.43-1.9,2.48-2.47,1.04-.57,2.36-.96,3.94-1.16,1.58-.21,3.49-.31,5.71-.31h7.48c2.23,0,4.13.1,5.71.31,1.58.2,2.9.59,3.94,1.16,1.04.57,1.87,1.39,2.48,2.47.61,1.08,1.03,2.47,1.28,4.18.25,1.71.37,3.83.37,6.36v.74c0,3.06-.2,5.54-.6,7.44-.4,1.91-1.11,3.37-2.12,4.38-1.01,1.01-2.41,1.71-4.2,2.09-1.79.38-4.08.57-6.87.57h-7.48ZM563.27,614.8h7.48c1.77,0,3.26-.06,4.47-.19,1.21-.12,2.2-.39,2.96-.8s1.34-1.03,1.74-1.86c.4-.83.68-1.94.83-3.32.15-1.38.22-3.13.22-5.23v-.74c0-2.18-.07-3.97-.22-5.38s-.42-2.52-.83-3.34c-.4-.82-.98-1.41-1.74-1.79-.76-.38-1.75-.62-2.96-.72-1.21-.11-2.7-.16-4.47-.16h-7.48c-1.77,0-3.26.05-4.47.16-1.21.1-2.2.35-2.96.72-.76.38-1.34.97-1.74,1.79-.4.82-.68,1.93-.83,3.34s-.22,3.2-.22,5.38v.74c0,2.1.07,3.85.22,5.23.15,1.39.42,2.49.83,3.32.4.83.98,1.45,1.74,1.86s1.75.67,2.96.8c1.21.12,2.7.19,4.47.19Z"/>
      <path d="M592.06,617.29v-28.5h5.31l17.24,23.25,16.98-23.25h5.31v28.5h-3.56v-25.27l-17.01,23.4h-3.23l-17.46-23.4v25.27h-3.56Z"/>
      <path d="M643.23,617.29l16.62-28.5h4.75l16.62,28.5h-4.16l-3.56-6.53h-22.56l-3.56,6.53h-4.16ZM652.73,607.79h19l-9.5-16.62-9.5,16.62Z"/>
      <path d="M699.94,617.29v-25.53h-14.25v-2.97h32.06v2.97h-14.25v25.53h-3.56Z"/>
      <path d="M724.57,617.29v-28.5h27.98v2.97h-24.42v9.5h23.4v2.97h-23.4v10.09h24.94v2.97h-28.5Z"/>
      <path d="M759.42,617.29v-28.5h21.15c2.78,0,5.07.17,6.87.5,1.79.33,3.19.98,4.2,1.94,1.01.96,1.71,2.35,2.12,4.18.4,1.83.6,4.25.6,7.25v.74c0,2.91-.2,5.27-.6,7.1-.4,1.82-1.11,3.23-2.12,4.21-1.01.98-2.41,1.66-4.2,2.02-1.79.36-4.08.55-6.87.55h-21.15ZM762.98,614.21h17.59c2.21,0,4-.1,5.34-.32,1.35-.21,2.38-.67,3.08-1.37s1.18-1.78,1.43-3.23c.25-1.45.37-3.41.37-5.88v-.74c0-2.05-.07-3.75-.22-5.08s-.42-2.39-.83-3.16c-.4-.77-.98-1.34-1.74-1.71-.76-.36-1.75-.6-2.96-.7-1.21-.1-2.7-.15-4.47-.15h-17.59v22.34Z"/>
      <path d="M860.9,617.88c-2.78,0-5.07-.19-6.87-.57-1.79-.38-3.19-1.07-4.2-2.09-1.01-1.01-1.71-2.47-2.12-4.38-.4-1.9-.6-4.38-.6-7.44v-14.62h3.56v14.62c0,2.1.07,3.85.22,5.23.15,1.39.43,2.49.83,3.32.41.83.99,1.45,1.75,1.86.76.41,1.75.67,2.96.8,1.21.12,2.7.19,4.45.19h6.72c1.77,0,3.26-.06,4.46-.19,1.21-.12,2.19-.39,2.95-.8.76-.41,1.34-1.03,1.75-1.86.41-.83.69-1.94.83-3.32.15-1.38.22-3.13.22-5.23v-14.62h3.56v14.62c0,3.06-.2,5.54-.6,7.44-.4,1.91-1.11,3.37-2.12,4.38-1.01,1.01-2.41,1.71-4.2,2.09-1.79.38-4.08.57-6.87.57h-6.72Z"/>
      <path d="M889.01,617.29v-28.5h3.71l28.63,24.1h.04v-24.1h3.56v28.5h-3.71l-28.63-24.31h-.04v24.31h-3.56Z"/>
      <path d="M933.6,617.29v-28.5h3.56v28.5h-3.56Z"/>
      <path d="M958.24,617.29v-25.53h-14.25v-2.97h32.06v2.97h-14.25v25.53h-3.56Z"/>
    </g>
    <g>
      <path d="M548.41,537.57h-21.76v-29.46h-76.5v29.46h-21.76v-60.02c0-8.76,1.51-16.82,4.52-24.19,3.01-7.37,7.2-13.7,12.56-19,5.36-5.3,11.69-9.43,19-12.39,7.31-2.96,15.29-4.44,23.94-4.44h49.05c1.51,0,2.93.28,4.27.84,1.34.56,2.51,1.34,3.52,2.34s1.79,2.18,2.34,3.52c.56,1.34.84,2.76.84,4.27v109.06ZM450.15,486.34h76.5v-47.04h-38.25c-.67,0-2.08.1-4.23.29-2.15.2-4.63.68-7.45,1.46-2.82.78-5.79,1.98-8.91,3.6-3.13,1.62-6,3.85-8.62,6.7-2.62,2.85-4.79,6.4-6.49,10.67-1.7,4.27-2.55,9.45-2.55,15.53v8.79Z"/>
      <path d="M691.29,526.6c0,1.56-.28,3.01-.84,4.35-.56,1.34-1.34,2.5-2.34,3.47-1,.98-2.18,1.74-3.52,2.3-1.34.56-2.76.84-4.27.84h-49.05c-4.63,0-9.32-.5-14.06-1.51-4.74-1-9.33-2.55-13.77-4.65-4.44-2.09-8.61-4.76-12.51-7.99-3.91-3.24-7.32-7.07-10.25-11.51-2.93-4.44-5.23-9.51-6.91-15.23-1.67-5.72-2.51-12.1-2.51-19.13v-60.01h21.76v60.01c0,6.14.85,11.33,2.55,15.57,1.7,4.24,3.86,7.78,6.49,10.63,2.62,2.85,5.5,5.08,8.62,6.7,3.12,1.62,6.1,2.82,8.91,3.6,2.82.78,5.3,1.27,7.45,1.47,2.15.2,3.56.29,4.23.29h38.25v-98.27h21.76v109.06Z"/>
      <path d="M836.52,457.88c0,4.97-.61,9.4-1.84,13.31-1.23,3.91-2.89,7.35-4.98,10.34-2.09,2.99-4.51,5.54-7.24,7.66-2.74,2.12-5.59,3.87-8.58,5.23-2.99,1.37-6,2.36-9.04,2.97-3.04.61-5.9.92-8.58.92l45.45,39.26h-33.65l-45.37-39.26h-15.65v-21.76h49.22c2.73-.22,5.23-.79,7.49-1.72,2.26-.92,4.21-2.16,5.86-3.73,1.64-1.56,2.92-3.44,3.81-5.65.89-2.2,1.34-4.73,1.34-7.58v-13.73c0-1.23-.16-2.16-.46-2.8-.31-.64-.7-1.12-1.17-1.42-.48-.31-.98-.49-1.51-.54-.53-.05-1.02-.08-1.46-.08h-71.82v98.27h-21.76v-109.06c0-1.51.28-2.93.84-4.27.56-1.34,1.33-2.51,2.3-3.52.98-1,2.13-1.79,3.47-2.34,1.34-.56,2.79-.84,4.35-.84h82.62c4.85,0,8.96.88,12.3,2.64,3.35,1.76,6.07,3.96,8.16,6.61,2.09,2.65,3.6,5.51,4.52,8.58.92,3.07,1.38,5.94,1.38,8.62v13.89Z"/>
      <path d="M976.13,537.57h-21.76v-29.46h-76.5v29.46h-21.76v-60.02c0-8.76,1.51-16.82,4.52-24.19,3.01-7.37,7.2-13.7,12.56-19,5.36-5.3,11.69-9.43,19-12.39,7.31-2.96,15.29-4.44,23.94-4.44h49.05c1.51,0,2.93.28,4.27.84,1.34.56,2.51,1.34,3.52,2.34s1.79,2.18,2.34,3.52c.56,1.34.84,2.76.84,4.27v109.06ZM877.87,486.34h76.5v-47.04h-38.25c-.67,0-2.08.1-4.23.29-2.15.2-4.63.68-7.45,1.46-2.82.78-5.79,1.98-8.91,3.6-3.12,1.62-6,3.85-8.62,6.7-2.62,2.85-4.79,6.4-6.49,10.67-1.7,4.27-2.55,9.45-2.55,15.53v8.79Z"/>
    </g>
  </g>
</svg>