<svg width="873" height="268" viewBox="0 0 873 268" fill="none" xmlns="http://www.w3.org/2000/svg">
<path d="M214.98 77.06C236.23 77.06 253.52 59.77 253.52 38.53C253.52 17.29 236.23 0 214.98 0C193.73 0 176.45 17.29 176.45 38.53C176.45 59.77 193.74 77.06 214.98 77.06ZM214.98 18.95C225.77 18.95 234.55 27.73 234.55 38.52C234.55 49.31 225.77 58.09 214.98 58.09C204.19 58.09 195.41 49.31 195.41 38.52C195.41 27.73 204.19 18.95 214.98 18.95Z" fill="#633BBA"/>
<path d="M113.36 102.03C113.36 84.65 99.2199 70.52 81.8499 70.52C64.4799 70.52 50.3398 84.66 50.3398 102.03C50.3398 119.4 64.4799 133.54 81.8499 133.54C99.2199 133.54 113.36 119.4 113.36 102.03ZM81.8499 114.58C74.9299 114.58 69.3098 108.95 69.3098 102.04C69.3098 95.1299 74.9399 89.5 81.8499 89.5C88.7599 89.5 94.3898 95.1299 94.3898 102.04C94.3898 108.95 88.7599 114.58 81.8499 114.58Z" fill="#633BBA"/>
<path d="M235.49 208.29C235.49 225.19 224.9 239.65 210.01 245.41C209.03 240.61 205.09 231.13 189.33 232.03C189.33 232.03 194.38 218.3 184.48 200.73C174.58 183.16 153.58 182.15 153.58 182.15C153.58 182.15 137.63 179.73 121.07 196.08L91.79 232.03C91.79 232.03 82.3 231.42 75.84 232.64C69.38 233.85 62.71 237.07 62.11 248.08H58.77C36.82 248.08 18.97 230.23 18.97 208.28V71.36C18.97 49.41 36.82 31.56 58.77 31.56H166.49C167.82 24.66 170.5 18.24 174.26 12.59H58.77C26.37 12.59 0 38.95 0 71.36V208.28C0 240.68 26.36 267.05 58.77 267.05H195.69C228.09 267.05 254.46 240.69 254.46 208.28V166.87H235.49V208.28V208.29Z" fill="#633BBA"/>
<path d="M167.11 44.64L166.79 44.05L107.82 69.7L107.98 70.15C117.77 77.21 124.16 88.71 124.16 101.67C124.16 104.84 123.77 107.92 123.05 110.87L182.37 73.47C173.72 66.61 167.93 56.3 167.1 44.64H167.11Z" fill="#633BBA"/>
<path d="M115.97 188.13C128.7 176.24 146.18 170.71 163.4 173.37C165.45 173.69 166.64 173.98 166.64 173.98L118.17 122.33C118.17 122.33 114.84 129.45 103.87 136.87C92.9001 144.29 77.1201 142.32 77.1201 142.32L108.47 196.09C110.96 193.06 113.52 190.41 115.96 188.13H115.97Z" fill="#633BBA"/>
<path d="M253.85 96.83L254.39 96.66L247.63 74.98C241.54 80.75 233.58 84.55 224.77 85.37L230.39 103.78C223.31 109.28 218.43 117.55 217.54 127.04C216.69 136.07 219.49 144.75 224.93 151.42C229.14 156.58 237.22 155.83 240.36 149.97L240.59 149.55C242.36 146.24 241.87 142.25 239.53 139.31C236.94 136.07 235.78 131.76 236.63 127.39C237.81 121.3 242.87 116.56 249.02 115.78C257.9 114.65 265.49 121.57 265.49 130.23C265.49 133.38 264.46 136.4 262.64 138.87C260.37 141.96 260.05 146.06 261.97 149.37C265.36 155.22 273.65 155.79 277.71 150.38C282.01 144.65 284.45 137.59 284.45 130.23C284.45 112.72 270.96 98.31 253.83 96.83H253.85Z" fill="#633BBA"/>
<path d="M324.55 238.28H343.62C346.4 238.28 348.64 238.4 350.35 238.65C352.05 238.9 353.34 239.32 354.22 239.93C355.1 240.54 355.69 241.37 356 242.42C356.31 243.47 356.46 244.8 356.46 246.41V247.15C356.46 248.63 356.28 249.91 355.93 250.98C355.58 252.05 354.9 252.92 353.9 253.58C352.9 254.24 351.41 254.71 349.45 254.98L355.65 266.78H352.09L346.02 255.24C345.77 255.25 345.52 255.26 345.25 255.26H328.11V266.78H324.55V238.28ZM328.11 252.18H343.86C345.98 252.18 347.64 252.11 348.86 251.97C350.08 251.83 350.98 251.58 351.55 251.22C352.13 250.86 352.49 250.35 352.65 249.7C352.81 249.04 352.89 248.2 352.89 247.16V246.42C352.89 245.25 352.78 244.32 352.56 243.64C352.34 242.96 351.89 242.46 351.22 242.14C350.55 241.82 349.56 241.61 348.23 241.52C346.91 241.43 345.14 241.38 342.92 241.38H328.09V252.2L328.11 252.18Z" fill="black"/>
<path d="M374.24 267.37C371.46 267.37 369.17 267.18 367.37 266.8C365.58 266.42 364.18 265.73 363.17 264.71C362.16 263.7 361.46 262.24 361.05 260.33C360.65 258.43 360.45 255.95 360.45 252.89V252.15C360.45 249.63 360.57 247.51 360.82 245.79C361.07 244.08 361.49 242.68 362.1 241.61C362.71 240.53 363.53 239.71 364.58 239.14C365.62 238.57 366.94 238.18 368.52 237.98C370.1 237.77 372.01 237.67 374.23 237.67H381.71C383.94 237.67 385.84 237.77 387.42 237.98C389 238.18 390.32 238.57 391.36 239.14C392.4 239.71 393.23 240.53 393.84 241.61C394.45 242.69 394.87 244.08 395.12 245.79C395.37 247.5 395.49 249.62 395.49 252.15V252.89C395.49 255.95 395.29 258.43 394.89 260.33C394.49 262.24 393.78 263.7 392.77 264.71C391.76 265.72 390.36 266.42 388.57 266.8C386.78 267.18 384.49 267.37 381.7 267.37H374.22H374.24ZM374.24 264.29H381.72C383.49 264.29 384.98 264.23 386.19 264.1C387.4 263.98 388.39 263.71 389.15 263.3C389.91 262.89 390.49 262.27 390.89 261.44C391.29 260.61 391.57 259.5 391.72 258.12C391.87 256.74 391.94 254.99 391.94 252.89V252.15C391.94 249.97 391.87 248.18 391.72 246.77C391.57 245.36 391.3 244.25 390.89 243.43C390.49 242.61 389.91 242.02 389.15 241.64C388.39 241.26 387.4 241.02 386.19 240.92C384.98 240.81 383.49 240.76 381.72 240.76H374.24C372.47 240.76 370.98 240.81 369.77 240.92C368.56 241.02 367.57 241.27 366.81 241.64C366.05 242.02 365.47 242.61 365.07 243.43C364.67 244.25 364.39 245.36 364.24 246.77C364.09 248.18 364.02 249.97 364.02 252.15V252.89C364.02 254.99 364.09 256.74 364.24 258.12C364.39 259.51 364.66 260.61 365.07 261.44C365.47 262.27 366.05 262.89 366.81 263.3C367.57 263.71 368.56 263.97 369.77 264.1C370.98 264.22 372.47 264.29 374.24 264.29Z" fill="black"/>
<path d="M399.88 266.78V238.28H422.59C424.74 238.28 426.51 238.48 427.89 238.88C429.27 239.28 430.29 239.99 430.95 241.01C431.61 242.03 431.94 243.48 431.94 245.34C431.94 247.02 431.55 248.41 430.77 249.51C429.99 250.61 428.8 251.22 427.19 251.33C429.29 251.54 430.81 252.29 431.74 253.58C432.67 254.87 433.13 256.5 433.13 258.45C433.13 260.15 432.94 261.54 432.55 262.62C432.16 263.71 431.51 264.55 430.59 265.15C429.67 265.75 428.43 266.17 426.87 266.4C425.31 266.64 423.35 266.75 421.02 266.75H399.89L399.88 266.78ZM403.44 250.15H420.05C421.97 250.15 423.54 250.08 424.76 249.95C425.98 249.81 426.89 249.41 427.49 248.74C428.09 248.07 428.38 246.94 428.38 245.34C428.38 244.09 428.2 243.18 427.85 242.59C427.5 242.01 426.9 241.64 426.06 241.48C425.22 241.32 424.06 241.24 422.59 241.24H403.44V250.15ZM403.44 263.81H421.01C422.7 263.81 424.11 263.77 425.21 263.68C426.32 263.59 427.19 263.38 427.83 263.05C428.47 262.72 428.92 262.19 429.18 261.46C429.44 260.74 429.57 259.74 429.57 258.46C429.57 257.18 429.33 256.13 428.84 255.4C428.35 254.67 427.67 254.15 426.8 253.82C425.93 253.5 424.92 253.3 423.77 253.23C422.62 253.16 421.38 253.12 420.06 253.12H403.45V263.81H403.44Z" fill="black"/>
<path d="M450.109 267.37C447.329 267.37 445.039 267.18 443.239 266.8C441.449 266.42 440.049 265.73 439.039 264.71C438.029 263.7 437.329 262.24 436.919 260.33C436.519 258.43 436.319 255.95 436.319 252.89V252.15C436.319 249.63 436.439 247.51 436.689 245.79C436.939 244.08 437.359 242.68 437.969 241.61C438.579 240.53 439.399 239.71 440.449 239.14C441.489 238.57 442.809 238.18 444.389 237.98C445.969 237.77 447.879 237.67 450.099 237.67H457.579C459.809 237.67 461.709 237.77 463.289 237.98C464.869 238.18 466.189 238.57 467.229 239.14C468.269 239.71 469.099 240.53 469.709 241.61C470.319 242.69 470.739 244.08 470.989 245.79C471.239 247.5 471.359 249.62 471.359 252.15V252.89C471.359 255.95 471.159 258.43 470.759 260.33C470.359 262.24 469.649 263.7 468.639 264.71C467.629 265.72 466.229 266.42 464.439 266.8C462.649 267.18 460.359 267.37 457.569 267.37H450.089H450.109ZM450.109 264.29H457.589C459.359 264.29 460.849 264.23 462.059 264.1C463.269 263.98 464.259 263.71 465.019 263.3C465.779 262.89 466.359 262.27 466.759 261.44C467.159 260.61 467.439 259.5 467.589 258.12C467.739 256.74 467.809 254.99 467.809 252.89V252.15C467.809 249.97 467.739 248.18 467.589 246.77C467.439 245.36 467.169 244.25 466.759 243.43C466.359 242.61 465.779 242.02 465.019 241.64C464.259 241.26 463.269 241.02 462.059 240.92C460.849 240.81 459.359 240.76 457.589 240.76H450.109C448.339 240.76 446.849 240.81 445.639 240.92C444.429 241.02 443.439 241.27 442.679 241.64C441.919 242.02 441.339 242.61 440.939 243.43C440.539 244.25 440.259 245.36 440.109 246.77C439.959 248.18 439.889 249.97 439.889 252.15V252.89C439.889 254.99 439.959 256.74 440.109 258.12C440.259 259.51 440.529 260.61 440.939 261.44C441.339 262.27 441.919 262.89 442.679 263.3C443.439 263.71 444.429 263.97 445.639 264.1C446.849 264.22 448.339 264.29 450.109 264.29Z" fill="black"/>
<path d="M488.18 266.78V241.25H473.93V238.28H505.99V241.25H491.74V266.78H488.18Z" fill="black"/>
<path d="M509.75 266.78V238.28H513.31V266.78H509.75Z" fill="black"/>
<path d="M517.69 252.9V252.16C517.69 249.64 517.81 247.52 518.06 245.8C518.31 244.09 518.73 242.69 519.34 241.62C519.95 240.54 520.77 239.72 521.82 239.15C522.86 238.58 524.18 238.19 525.76 237.99C527.34 237.78 529.25 237.68 531.47 237.68H538.95C541.5 237.68 543.65 237.8 545.4 238.04C547.15 238.28 548.56 238.76 549.63 239.47C550.7 240.18 551.48 241.23 551.96 242.6C552.44 243.98 552.68 245.81 552.68 248.08H549.12C549.12 246.29 548.96 244.89 548.64 243.9C548.32 242.9 547.78 242.18 547.02 241.74C546.26 241.3 545.22 241.02 543.91 240.91C542.6 240.8 540.95 240.75 538.96 240.75H531.48C529.71 240.75 528.22 240.8 527.01 240.91C525.8 241.01 524.81 241.26 524.05 241.63C523.29 242.01 522.71 242.6 522.31 243.42C521.91 244.24 521.63 245.35 521.48 246.76C521.33 248.17 521.26 249.96 521.26 252.14V252.88C521.26 254.98 521.33 256.73 521.48 258.11C521.63 259.5 521.9 260.6 522.31 261.43C522.71 262.26 523.29 262.88 524.05 263.29C524.81 263.7 525.8 263.96 527.01 264.09C528.22 264.21 529.71 264.28 531.48 264.28H538.96C540.95 264.28 542.6 264.24 543.91 264.15C545.22 264.06 546.26 263.81 547.02 263.39C547.78 262.97 548.32 262.27 548.64 261.28C548.96 260.3 549.12 258.91 549.12 257.13H552.68C552.68 259.41 552.44 261.22 551.96 262.59C551.48 263.95 550.7 264.97 549.63 265.66C548.56 266.35 547.15 266.8 545.4 267.02C543.65 267.24 541.5 267.35 538.95 267.35H531.47C528.69 267.35 526.4 267.16 524.6 266.78C522.81 266.4 521.41 265.71 520.4 264.69C519.39 263.68 518.69 262.22 518.28 260.31C517.88 258.41 517.68 255.93 517.68 252.87L517.69 252.9Z" fill="black"/>
<path d="M576.449 266.78L593.069 238.28H597.819L614.439 266.78H610.279L606.719 260.25H584.159L580.599 266.78H576.439H576.449ZM585.949 257.28H604.949L595.449 240.66L585.949 257.28Z" fill="black"/>
<path d="M647.98 258.54C647.98 257.44 647.89 256.57 647.72 255.94C647.55 255.31 647.16 254.84 646.55 254.54C645.94 254.24 645 254.04 643.73 253.95C642.46 253.86 640.71 253.79 638.5 253.75L628.18 253.6C625.63 253.56 623.58 253.41 622.04 253.14C620.49 252.87 619.32 252.44 618.53 251.85C617.74 251.26 617.21 250.47 616.94 249.48C616.67 248.49 616.54 247.25 616.54 245.77C616.54 244.15 616.72 242.81 617.09 241.76C617.45 240.71 618.12 239.89 619.07 239.29C620.03 238.7 621.39 238.28 623.14 238.04C624.9 237.8 627.17 237.68 629.95 237.68H637.89C640.41 237.68 642.52 237.76 644.2 237.92C645.88 238.08 647.22 238.45 648.21 239.03C649.2 239.61 649.91 240.51 650.33 241.74C650.76 242.96 650.97 244.65 650.97 246.79H647.41C647.41 245.13 647.25 243.88 646.94 243.03C646.63 242.18 646.11 241.6 645.38 241.29C644.66 240.98 643.68 240.81 642.46 240.79C641.24 240.77 639.71 240.75 637.9 240.75H630.14C627.92 240.75 626.15 240.79 624.82 240.88C623.49 240.97 622.49 241.17 621.81 241.47C621.13 241.78 620.68 242.27 620.45 242.95C620.22 243.63 620.11 244.56 620.11 245.75C620.11 246.75 620.19 247.56 620.35 248.16C620.51 248.77 620.87 249.23 621.44 249.54C622 249.85 622.87 250.07 624.05 250.19C625.22 250.31 626.83 250.38 628.86 250.4L639.92 250.55C642.52 250.59 644.59 250.74 646.14 251C647.69 251.27 648.86 251.7 649.63 252.29C650.4 252.88 650.92 253.68 651.17 254.69C651.42 255.7 651.55 256.97 651.55 258.5C651.55 260.17 651.39 261.57 651.08 262.7C650.77 263.83 650.16 264.74 649.25 265.42C648.35 266.1 647.04 266.59 645.33 266.89C643.62 267.19 641.38 267.34 638.59 267.34H629.91C627.37 267.34 625.25 267.23 623.53 267.01C621.81 266.79 620.44 266.34 619.42 265.66C618.4 264.99 617.67 263.98 617.22 262.65C616.77 261.32 616.55 259.53 616.55 257.31H620.11C620.11 259.05 620.25 260.4 620.54 261.35C620.82 262.3 621.32 262.99 622.03 263.4C622.74 263.82 623.74 264.06 625.02 264.14C626.3 264.22 627.93 264.26 629.91 264.26H638.41C640.62 264.26 642.37 264.19 643.66 264.05C644.95 263.91 645.9 263.63 646.52 263.23C647.14 262.83 647.54 262.25 647.72 261.49C647.9 260.74 647.99 259.74 647.99 258.5L647.98 258.54Z" fill="black"/>
<path d="M686.16 258.54C686.16 257.44 686.07 256.57 685.9 255.94C685.73 255.31 685.34 254.84 684.73 254.54C684.12 254.24 683.18 254.04 681.91 253.95C680.64 253.86 678.89 253.79 676.68 253.75L666.36 253.6C663.81 253.56 661.76 253.41 660.22 253.14C658.67 252.87 657.5 252.44 656.71 251.85C655.92 251.26 655.39 250.47 655.12 249.48C654.85 248.49 654.72 247.25 654.72 245.77C654.72 244.15 654.9 242.81 655.27 241.76C655.63 240.71 656.3 239.89 657.25 239.29C658.21 238.7 659.57 238.28 661.32 238.04C663.08 237.8 665.35 237.68 668.13 237.68H676.07C678.59 237.68 680.7 237.76 682.38 237.92C684.06 238.08 685.4 238.45 686.39 239.03C687.38 239.61 688.09 240.51 688.51 241.74C688.94 242.96 689.15 244.65 689.15 246.79H685.59C685.59 245.13 685.43 243.88 685.12 243.03C684.81 242.18 684.29 241.6 683.56 241.29C682.84 240.98 681.86 240.81 680.64 240.79C679.42 240.77 677.89 240.75 676.08 240.75H668.32C666.11 240.75 664.33 240.79 663 240.88C661.67 240.97 660.67 241.17 659.99 241.47C659.31 241.78 658.86 242.27 658.63 242.95C658.4 243.63 658.29 244.56 658.29 245.75C658.29 246.75 658.37 247.56 658.53 248.16C658.69 248.77 659.05 249.23 659.62 249.54C660.18 249.85 661.05 250.07 662.23 250.19C663.4 250.31 665.01 250.38 667.04 250.4L678.1 250.55C680.7 250.59 682.77 250.74 684.32 251C685.87 251.27 687.04 251.7 687.81 252.29C688.58 252.88 689.1 253.68 689.35 254.69C689.6 255.7 689.73 256.97 689.73 258.5C689.73 260.17 689.57 261.57 689.26 262.7C688.95 263.83 688.34 264.74 687.43 265.42C686.53 266.1 685.22 266.59 683.51 266.89C681.8 267.19 679.56 267.34 676.77 267.34H668.09C665.55 267.34 663.43 267.23 661.71 267.01C659.99 266.79 658.62 266.34 657.6 265.66C656.58 264.99 655.85 263.98 655.4 262.65C654.95 261.32 654.73 259.53 654.73 257.31H658.29C658.29 259.05 658.43 260.4 658.72 261.35C659 262.3 659.5 262.99 660.21 263.4C660.92 263.82 661.92 264.06 663.2 264.14C664.48 264.22 666.11 264.26 668.09 264.26H676.59C678.8 264.26 680.55 264.19 681.84 264.05C683.13 263.91 684.08 263.63 684.7 263.23C685.32 262.83 685.72 262.25 685.9 261.49C686.08 260.74 686.17 259.74 686.17 258.5L686.16 258.54Z" fill="black"/>
<path d="M694.01 266.78V238.28H721.99V241.25H697.57V250.75H720.97V253.72H697.57V263.81H722.51V266.78H694.01Z" fill="black"/>
<path d="M725.78 266.78V238.28H731.09L748.33 261.53L765.31 238.28H770.62V266.78H767.06V241.51L750.05 264.91H746.82L729.36 241.51V266.78H725.8H725.78Z" fill="black"/>
<path d="M776.25 266.78V238.28H798.96C801.11 238.28 802.88 238.48 804.26 238.88C805.64 239.28 806.66 239.99 807.32 241.01C807.98 242.03 808.31 243.48 808.31 245.34C808.31 247.02 807.92 248.41 807.14 249.51C806.36 250.61 805.17 251.22 803.56 251.33C805.66 251.54 807.18 252.29 808.11 253.58C809.04 254.87 809.5 256.5 809.5 258.45C809.5 260.15 809.3 261.54 808.92 262.62C808.53 263.71 807.88 264.55 806.96 265.15C806.04 265.75 804.8 266.17 803.24 266.4C801.67 266.64 799.72 266.75 797.39 266.75H776.26L776.25 266.78ZM779.81 250.15H796.42C798.34 250.15 799.91 250.08 801.13 249.95C802.35 249.81 803.26 249.41 803.86 248.74C804.46 248.07 804.75 246.94 804.75 245.34C804.75 244.09 804.57 243.18 804.22 242.59C803.87 242.01 803.27 241.64 802.43 241.48C801.59 241.32 800.43 241.24 798.96 241.24H779.81V250.15ZM779.81 263.81H797.38C799.07 263.81 800.48 263.77 801.58 263.68C802.69 263.59 803.56 263.38 804.2 263.05C804.84 262.72 805.28 262.19 805.54 261.46C805.8 260.74 805.93 259.74 805.93 258.46C805.93 257.18 805.69 256.13 805.2 255.4C804.71 254.67 804.03 254.15 803.16 253.82C802.29 253.5 801.28 253.3 800.13 253.23C798.98 253.16 797.74 253.12 796.42 253.12H779.81V263.81Z" fill="black"/>
<path d="M813.88 266.78V238.28H817.44V263.81H840V266.78H813.88Z" fill="black"/>
<path d="M852.66 266.78V254.9L836.63 238.28H841.38L854.44 252.23L867.5 238.28H872.25L856.22 254.9V266.78H852.66Z" fill="black"/>
<path d="M324.611 210.97L341.231 182.47H345.981L362.601 210.97H358.441L354.881 204.44H332.321L328.761 210.97H324.601H324.611ZM334.111 201.47H353.111L343.611 184.85L334.111 201.47Z" fill="black"/>
<path d="M381.631 211.56C378.851 211.56 376.561 211.37 374.761 210.99C372.971 210.61 371.571 209.92 370.561 208.9C369.551 207.89 368.851 206.43 368.441 204.52C368.041 202.62 367.841 200.14 367.841 197.08V182.46H371.401V197.08C371.401 199.18 371.471 200.93 371.621 202.31C371.771 203.7 372.051 204.8 372.451 205.63C372.861 206.46 373.441 207.08 374.201 207.49C374.961 207.9 375.951 208.16 377.161 208.29C378.371 208.41 379.861 208.48 381.611 208.48H388.331C390.101 208.48 391.591 208.42 392.791 208.29C394.001 208.17 394.981 207.9 395.741 207.49C396.501 207.08 397.091 206.46 397.491 205.63C397.901 204.8 398.181 203.69 398.321 202.31C398.471 200.93 398.541 199.18 398.541 197.08V182.46H402.101V197.08C402.101 200.14 401.901 202.62 401.501 204.52C401.101 206.43 400.391 207.89 399.381 208.9C398.371 209.91 396.971 210.61 395.181 210.99C393.391 211.37 391.101 211.56 388.311 211.56H381.591H381.631Z" fill="black"/>
<path d="M422.171 210.97V185.44H407.921V182.47H439.981V185.44H425.731V210.97H422.171Z" fill="black"/>
<path d="M459.41 211.56C456.63 211.56 454.34 211.37 452.54 210.99C450.75 210.61 449.35 209.92 448.34 208.9C447.33 207.89 446.63 206.43 446.22 204.52C445.82 202.62 445.62 200.14 445.62 197.08V196.34C445.62 193.82 445.74 191.7 445.99 189.98C446.24 188.27 446.66 186.87 447.27 185.8C447.88 184.72 448.7 183.9 449.75 183.33C450.79 182.76 452.11 182.37 453.69 182.17C455.27 181.96 457.18 181.86 459.4 181.86H466.88C469.11 181.86 471.01 181.96 472.59 182.17C474.17 182.37 475.49 182.76 476.53 183.33C477.57 183.9 478.4 184.72 479.01 185.8C479.62 186.88 480.04 188.27 480.29 189.98C480.54 191.69 480.66 193.81 480.66 196.34V197.08C480.66 200.14 480.46 202.62 480.06 204.52C479.66 206.43 478.95 207.89 477.94 208.9C476.93 209.91 475.53 210.61 473.74 210.99C471.95 211.37 469.66 211.56 466.87 211.56H459.39H459.41ZM459.41 208.48H466.89C468.66 208.48 470.15 208.42 471.36 208.29C472.57 208.17 473.56 207.9 474.32 207.49C475.08 207.08 475.66 206.46 476.06 205.63C476.46 204.8 476.74 203.69 476.89 202.31C477.04 200.93 477.11 199.18 477.11 197.08V196.34C477.11 194.16 477.04 192.37 476.89 190.96C476.74 189.55 476.47 188.44 476.06 187.62C475.66 186.8 475.08 186.21 474.32 185.83C473.56 185.45 472.57 185.21 471.36 185.11C470.15 185 468.66 184.95 466.89 184.95H459.41C457.64 184.95 456.15 185 454.94 185.11C453.73 185.21 452.74 185.46 451.98 185.83C451.22 186.21 450.64 186.8 450.24 187.62C449.84 188.44 449.56 189.55 449.41 190.96C449.26 192.37 449.19 194.16 449.19 196.34V197.08C449.19 199.18 449.26 200.93 449.41 202.31C449.56 203.7 449.83 204.8 450.24 205.63C450.64 206.46 451.22 207.08 451.98 207.49C452.74 207.9 453.73 208.16 454.94 208.29C456.15 208.41 457.64 208.48 459.41 208.48Z" fill="black"/>
<path d="M488.2 210.97V182.47H493.51L510.75 205.72L527.73 182.47H533.04V210.97H529.48V185.7L512.47 209.1H509.24L491.78 185.7V210.97H488.22H488.2Z" fill="black"/>
<path d="M539.37 210.97L555.99 182.47H560.74L577.36 210.97H573.2L569.64 204.44H547.08L543.52 210.97H539.36H539.37ZM548.87 201.47H567.87L558.37 184.85L548.87 201.47Z" fill="black"/>
<path d="M596.081 210.97V185.44H581.831V182.47H613.891V185.44H599.641V210.97H596.081Z" fill="black"/>
<path d="M620.711 210.97V182.47H648.691V185.44H624.271V194.94H647.671V197.91H624.271V208H649.211V210.97H620.711Z" fill="black"/>
<path d="M655.561 210.97V182.47H676.711C679.491 182.47 681.781 182.64 683.581 182.97C685.371 183.3 686.771 183.95 687.781 184.91C688.791 185.87 689.491 187.26 689.901 189.09C690.301 190.92 690.501 193.34 690.501 196.34V197.08C690.501 199.99 690.301 202.35 689.901 204.18C689.501 206 688.791 207.41 687.781 208.39C686.771 209.37 685.371 210.05 683.581 210.41C681.791 210.77 679.501 210.96 676.711 210.96H655.561V210.97ZM659.121 207.89H676.711C678.921 207.89 680.711 207.79 682.051 207.57C683.401 207.36 684.431 206.9 685.131 206.2C685.831 205.5 686.311 204.42 686.561 202.97C686.811 201.52 686.931 199.56 686.931 197.09V196.35C686.931 194.3 686.861 192.6 686.711 191.27C686.561 189.94 686.291 188.88 685.881 188.11C685.481 187.34 684.901 186.77 684.141 186.4C683.381 186.04 682.391 185.8 681.181 185.7C679.971 185.6 678.481 185.55 676.711 185.55H659.121V207.89Z" fill="black"/>
<path d="M757.041 211.56C754.261 211.56 751.971 211.37 750.171 210.99C748.381 210.61 746.981 209.92 745.971 208.9C744.961 207.89 744.261 206.43 743.851 204.52C743.451 202.62 743.251 200.14 743.251 197.08V182.46H746.811V197.08C746.811 199.18 746.881 200.93 747.031 202.31C747.181 203.7 747.461 204.8 747.861 205.63C748.271 206.46 748.851 207.08 749.611 207.49C750.371 207.9 751.361 208.16 752.571 208.29C753.781 208.41 755.271 208.48 757.021 208.48H763.741C765.511 208.48 767.001 208.42 768.201 208.29C769.411 208.17 770.391 207.9 771.151 207.49C771.911 207.08 772.491 206.46 772.901 205.63C773.311 204.8 773.591 203.69 773.731 202.31C773.881 200.93 773.951 199.18 773.951 197.08V182.46H777.511V197.08C777.511 200.14 777.311 202.62 776.911 204.52C776.511 206.43 775.801 207.89 774.791 208.9C773.781 209.91 772.381 210.61 770.591 210.99C768.801 211.37 766.511 211.56 763.721 211.56H757.001H757.041Z" fill="black"/>
<path d="M785.15 210.97V182.47H788.86L817.49 206.57H817.53V182.47H821.09V210.97H817.38L788.75 186.66H788.71V210.97H785.15Z" fill="black"/>
<path d="M829.74 210.97V182.47H833.3V210.97H829.74Z" fill="black"/>
<path d="M854.381 210.97V185.44H840.131V182.47H872.191V185.44H857.941V210.97H854.381Z" fill="black"/>
<path d="M444.55 131.25H422.79V101.79H346.29V131.25H324.53V71.23C324.53 62.47 326.04 54.41 329.05 47.04C332.06 39.67 336.25 33.34 341.61 28.04C346.97 22.74 353.3 18.61 360.61 15.65C367.92 12.69 375.9 11.21 384.55 11.21H433.6C435.11 11.21 436.53 11.49 437.87 12.05C439.21 12.61 440.38 13.39 441.39 14.39C442.4 15.39 443.18 16.57 443.73 17.91C444.29 19.25 444.57 20.67 444.57 22.18V131.24L444.55 131.25ZM346.29 80.02H422.79V32.98H384.54C383.87 32.98 382.46 33.08 380.31 33.27C378.16 33.47 375.68 33.95 372.86 34.73C370.04 35.51 367.07 36.71 363.95 38.33C360.82 39.95 357.95 42.18 355.33 45.03C352.71 47.88 350.54 51.43 348.84 55.7C347.14 59.97 346.29 65.15 346.29 71.23V80.02Z" fill="black"/>
<path d="M587.43 120.28C587.43 121.84 587.15 123.29 586.59 124.63C586.03 125.97 585.25 127.13 584.25 128.1C583.25 129.08 582.07 129.84 580.73 130.4C579.39 130.96 577.97 131.24 576.46 131.24H527.41C522.78 131.24 518.09 130.74 513.35 129.73C508.61 128.73 504.02 127.18 499.58 125.08C495.14 122.99 490.97 120.32 487.07 117.09C483.16 113.85 479.75 110.02 476.82 105.58C473.89 101.14 471.59 96.07 469.91 90.35C468.24 84.63 467.4 78.25 467.4 71.22V11.21H489.16V71.22C489.16 77.36 490.01 82.55 491.71 86.79C493.41 91.03 495.57 94.57 498.2 97.42C500.82 100.27 503.7 102.5 506.82 104.12C509.94 105.74 512.92 106.94 515.73 107.72C518.55 108.5 521.03 108.99 523.18 109.19C525.33 109.39 526.74 109.48 527.41 109.48H565.66V11.21H587.42V120.27L587.43 120.28Z" fill="black"/>
<path d="M732.661 51.56C732.661 56.53 732.051 60.96 730.821 64.87C729.591 68.78 727.931 72.22 725.841 75.21C723.751 78.2 721.331 80.75 718.601 82.87C715.861 84.99 713.011 86.74 710.021 88.1C707.031 89.47 704.021 90.46 700.981 91.07C697.941 91.68 695.081 91.99 692.401 91.99L737.851 131.25H704.201L658.831 91.99H643.181V70.23H692.401C695.131 70.01 697.631 69.44 699.891 68.51C702.151 67.59 704.101 66.35 705.751 64.78C707.391 63.22 708.671 61.34 709.561 59.13C710.451 56.93 710.901 54.4 710.901 51.55V37.82C710.901 36.59 710.741 35.66 710.441 35.02C710.131 34.38 709.741 33.9 709.271 33.6C708.791 33.29 708.291 33.11 707.761 33.06C707.231 33.01 706.741 32.98 706.301 32.98H634.481V131.25H612.721V22.19C612.721 20.68 613.001 19.26 613.561 17.92C614.121 16.58 614.891 15.41 615.861 14.4C616.841 13.4 617.991 12.61 619.331 12.06C620.671 11.5 622.121 11.22 623.681 11.22H706.301C711.151 11.22 715.261 12.1 718.601 13.86C721.951 15.62 724.671 17.82 726.761 20.47C728.851 23.12 730.361 25.98 731.281 29.05C732.201 32.12 732.661 34.99 732.661 37.67V51.56Z" fill="black"/>
<path d="M872.27 131.25H850.51V101.79H774.01V131.25H752.25V71.23C752.25 62.47 753.76 54.41 756.77 47.04C759.78 39.67 763.97 33.34 769.33 28.04C774.69 22.74 781.02 18.61 788.33 15.65C795.64 12.69 803.62 11.21 812.27 11.21H861.32C862.83 11.21 864.25 11.49 865.59 12.05C866.93 12.61 868.1 13.39 869.11 14.39C870.12 15.39 870.9 16.57 871.45 17.91C872.01 19.25 872.29 20.67 872.29 22.18V131.24L872.27 131.25ZM774.01 80.02H850.51V32.98H812.26C811.59 32.98 810.18 33.08 808.03 33.27C805.88 33.47 803.4 33.95 800.58 34.73C797.76 35.51 794.79 36.71 791.67 38.33C788.55 39.95 785.67 42.18 783.05 45.03C780.43 47.88 778.26 51.43 776.56 55.7C774.86 59.97 774.01 65.15 774.01 71.23V80.02Z" fill="black"/>
</svg>
